<?xml version="1.0" encoding="utf-8"?>
<svg viewBox="0 0 70.556 8" xmlns="http://www.w3.org/2000/svg" xmlns:xlink="http://www.w3.org/1999/xlink" xmlns:bx="https://boxy-svg.com">
  <defs>
    <symbol id="sql-time" viewBox="34.046 37.202 439.919 429.365">
      <title>Sql Time</title>
      <path style="stroke: rgb(0, 0, 0); stroke-width: 50px; fill: none;" d="M 247.441 438.212 C 388.426 438.212 476.541 284.952 406.049 162.346 C 335.557 39.739 159.327 39.739 88.832 162.346 C 67.878 198.794 60.005 241.355 66.528 282.927" transform="matrix(0.063963, -0.997952, 0.997952, 0.063963, -22.039139, 485.105804)"/>
      <path d="M -436.261 -340.243 Q -428.915 -355.719 -421.57 -340.243 L -399.532 -293.816 Q -392.186 -278.34 -406.878 -278.34 L -450.953 -278.34 Q -465.645 -278.34 -458.299 -293.816 Z" style="stroke: rgb(0, 0, 0); stroke-width: 5px; fill: rgb(58, 184, 157);" transform="matrix(-0.997849, -0.065561, 0.065561, -0.997849, 21.454376, -27.446959)" shape="triangle -465.645 -355.719 73.459 77.379 0.5 0.2 1@f6cde521"/>
      <g>
        <polyline style="stroke-width: 20px; stroke-linejoin: round; stroke-linecap: round; fill: rgb(58, 184, 157); stroke: rgb(58, 184, 157);" points="249.505 111.088 249.609 154.495"/>
        <polyline style="stroke-width: 20px; stroke-linejoin: round; stroke-linecap: round; fill: rgb(58, 184, 157); stroke: rgb(58, 184, 157);" points="253.462 350.181 253.817 393.269"/>
        <polyline style="stroke-width: 20px; stroke-linejoin: round; stroke-linecap: round; fill: rgb(58, 184, 157); stroke: rgb(58, 184, 157);" points="128.394 237.548 128.498 280.954" transform="matrix(0.017452, 0.999848, -0.999848, 0.017452, 385.415884, 126.300122)"/>
        <polyline style="stroke-width: 20px; stroke-linejoin: round; stroke-linecap: round; fill: rgb(58, 184, 157); stroke: rgb(58, 184, 157);" points="365.635 232.16 365.739 275.566" transform="matrix(0.017452, 0.999848, -0.999848, 0.017452, 613.129387, -116.198729)"/>
      </g>
      <text style="fill: rgb(51, 51, 51); font-family: &quot;Roboto Condensed&quot;; font-size: 102px; font-weight: 700; white-space: pre; text-decoration: underline solid rgba(0, 0, 0, 0.85);" x="289.961" y="436.656">SQL</text>
      <g transform="matrix(0.707107, 0.707107, -0.707107, 0.707107, 249.550446, -96.62793)">
        <polyline style="fill: rgb(216, 216, 216); stroke-width: 20px; stroke-linejoin: round; stroke-linecap: round; stroke: rgb(58, 184, 157);" points="249.505 111.088 249.609 154.495"/>
        <polyline style="fill: rgb(216, 216, 216); stroke-width: 20px; stroke-linejoin: round; stroke-linecap: round; stroke: rgb(58, 184, 157);" points="253.462 350.181 253.817 393.269"/>
        <polyline style="stroke-width: 20px; stroke-linejoin: round; stroke-linecap: round; fill: rgb(206, 206, 206); stroke: rgb(58, 184, 157);" points="128.394 237.548 128.498 280.954" transform="matrix(0.017452, 0.999848, -0.999848, 0.017452, 385.415884, 126.300122)"/>
        <polyline style="fill: rgb(216, 216, 216); stroke-width: 20px; stroke-linejoin: round; stroke-linecap: round; stroke: rgb(58, 184, 157);" points="365.635 232.16 365.739 275.566" transform="matrix(0.017452, 0.999848, -0.999848, 0.017452, 613.129387, -116.198729)"/>
      </g>
      <polyline style="fill: rgb(216, 216, 216); stroke: rgb(0, 0, 0); stroke-width: 19px; stroke-linecap: round; stroke-linejoin: round;" points="168.219 164.254 244.316 257.241"/>
    </symbol>
    <symbol id="query" viewBox="104 96 85 88">
      <title>Query</title>
      <g>
        <title>Magnifying glass</title>
        <ellipse style="stroke: rgb(0, 0, 0); stroke-width: 1.86439px; stroke-linejoin: round; stroke-linecap: square; fill: rgb(58, 184, 157);" cx="133.707" cy="122.941" rx="24.368" ry="24.368"/>
        <ellipse style="stroke: rgb(0, 0, 0); stroke-width: 1.86439px; stroke-linejoin: round; stroke-linecap: square; fill: rgb(255, 255, 255);" cx="133.837" cy="122.649" rx="17.899" ry="17.899"/>
        <g transform="matrix(1, 0, 0, 1, 0.868287, -3.233797)">
          <title>Graph</title>
          <rect x="137.82" y="127.903" width="8.622" height="9.681" style="fill: rgb(216, 216, 216); stroke: rgb(0, 0, 0);"/>
          <rect x="129.198" y="123.063" width="8.622" height="14.521" style="fill: rgb(216, 216, 216); stroke: rgb(0, 0, 0);"/>
          <rect x="120.576" y="113.382" width="8.622" height="24.202" style="fill: rgb(216, 216, 216); stroke: rgb(0, 0, 0);"/>
        </g>
        <rect x="127.857" y="108.138" width="48.944" height="10.804" style="stroke: rgb(0, 0, 0); stroke-width: 1.86439px; stroke-linejoin: round; stroke-linecap: square; fill: rgb(58, 184, 157);" rx="3.658" ry="3.658" transform="matrix(-0.681998, -0.731354, 0.731354, -0.681998, 189.106796, 349.15683)"/>
      </g>
      <text style="fill: rgb(51, 51, 51); font-family: &quot;Roboto Condensed&quot;; font-size: 32px; font-weight: 700; white-space: pre;" x="3.595" y="-0.304"><tspan x="107.334" y="174.677" style="text-decoration: underline solid rgba(0, 0, 0, 0.85); font-size: 32px; word-spacing: 0px;">SQL</tspan></text>
      <text style="white-space: pre; fill: rgb(51, 51, 51); font-family: Arial, sans-serif; font-size: 3px;" x="250.635" y="154.665">Enter your text here</text>
    </symbol>
    <symbol id="explain" viewBox="-63.717 6.935 73.958 76.909">
      <title>Explain</title>
      <g transform="matrix(1, 0, 0, 1, -166.947403, -88.23024)">
        <g>
          <title>Magnifying glass</title>
          <ellipse style="stroke: rgb(0, 0, 0); stroke-width: 1.86439px; stroke-linejoin: round; stroke-linecap: square; fill: rgb(58, 184, 157);" cx="133.707" cy="122.941" rx="24.368" ry="24.368"/>
          <ellipse style="stroke: rgb(0, 0, 0); stroke-width: 1.86439px; stroke-linejoin: round; stroke-linecap: square; fill: rgb(255, 255, 255);" cx="133.837" cy="122.649" rx="17.899" ry="17.899"/>
          <g transform="matrix(1, 0, 0, 1, 0.780285, -2.499035)">
            <title>Graph</title>
            <rect x="137.82" y="127.903" width="8.622" height="9.681" style="fill: rgb(216, 216, 216); stroke: rgb(0, 0, 0);"/>
            <rect x="129.198" y="123.063" width="8.622" height="14.521" style="fill: rgb(216, 216, 216); stroke: rgb(0, 0, 0);"/>
            <rect x="120.576" y="113.382" width="8.622" height="24.202" style="fill: rgb(216, 216, 216); stroke: rgb(0, 0, 0);"/>
          </g>
          <rect x="84.641" y="96.221" width="32.4" height="9.613" style="stroke: rgb(0, 0, 0); stroke-width: 1.86439px; stroke-linejoin: round; stroke-linecap: square; fill: rgb(58, 184, 157);" rx="3.658" ry="3.658" transform="matrix(-0.681998, -0.731354, 0.731354, -0.681998, 156.204498, 297.483093)"/>
        </g>
        <text style="fill: rgb(58, 184, 157); font-family: &quot;Roboto Condensed&quot;; font-size: 69px; font-weight: 700; stroke: rgb(0, 0, 0); stroke-width: 2px; white-space: pre;" x="119.666" y="146.251">?</text>
        <text style="fill: rgb(51, 51, 51); font-family: &quot;Roboto Condensed&quot;; font-size: 17px; font-weight: 700; white-space: pre; text-decoration: underline solid rgba(0, 0, 0, 0.85);" x="104.39" y="167.145">Explain</text>
        <text style="white-space: pre; fill: rgb(51, 51, 51); font-family: Arial, sans-serif; font-size: 3.5px;" x="285.163" y="147.867">Enter your text here</text>
      </g>
    </symbol>
    <symbol id="execute" viewBox="100 90 101.473 72.386">
      <title>Execute</title>
      <g transform="matrix(1, 0, 0, 1, 18.17033, -2.303241)">
        <path style="stroke: rgb(0, 0, 0); stroke-width: 16.2px; fill: rgb(58, 184, 157);" transform="matrix(0.123457, 0, 0, 0.123457, 79.113129, 73.839157)" d="M 540.634 243.384 L 568.089 243.384 L 582.972 281.613 A 139.17 139.17 0 0 1 603.926 287.765 L 637.115 263.652 L 660.212 278.495 L 652.065 318.702 A 139.17 139.17 0 0 1 666.366 335.206 L 707.323 332.864 L 718.728 357.838 L 690.137 387.258 A 139.17 139.17 0 0 1 693.244 408.874 L 728.966 429.046 L 725.059 456.222 L 685.101 465.513 A 139.17 139.17 0 0 1 676.029 485.378 L 695.174 521.661 L 677.195 542.411 L 638.556 528.624 A 139.17 139.17 0 0 1 620.185 540.431 L 616.675 581.304 L 590.331 589.039 L 565.281 556.552 A 139.17 139.17 0 0 1 543.442 556.552 L 518.391 589.039 L 492.048 581.304 L 488.538 540.431 A 139.17 139.17 0 0 1 470.166 528.624 L 431.528 542.411 L 413.549 521.661 L 432.694 485.378 A 139.17 139.17 0 0 1 423.622 465.513 L 383.663 456.222 L 379.756 429.046 L 415.478 408.874 A 139.17 139.17 0 0 1 418.586 387.258 L 389.994 357.838 L 401.4 332.864 L 442.357 335.206 A 139.17 139.17 0 0 1 456.658 318.702 L 448.511 278.495 L 471.607 263.652 L 504.796 287.765 A 139.17 139.17 0 0 1 525.75 281.613 Z M 554.361 371.42 A 46.39 46.39 0 0 0 554.361 464.201 A 46.39 46.39 0 0 0 554.361 371.42" bx:shape="cog 554.361 417.811 46.39 139.17 174.427 0.45 11 1@8224a9b1"/>
        <path style="stroke: rgb(0, 0, 0); fill: none; stroke-width: 4px;" d="M 147.958 154.125 C 165.865 154.125 178.881 137.111 174.194 119.828"/>
        <path style="stroke: rgb(0, 0, 0); fill: none; stroke-width: 4px;" d="M 118.113 131.743 C 136.02 131.743 149.036 114.729 144.349 97.446" transform="matrix(-1, 0, 0, -1, 263.424767, 229.188995)"/>
        <path d="M 113.221 71.481 Q 114.075 69.772 114.93 71.481 L 117.494 76.608 Q 118.348 78.317 116.639 78.317 L 111.512 78.317 Q 109.803 78.317 110.658 76.608 Z" style="stroke: rgb(0, 0, 0); fill: rgb(58, 184, 157);" transform="matrix(0, 1, -1, 0, 225.252579, -16.365372)" bx:shape="triangle 109.803 69.772 8.545 8.545 0.5 0.2 1@bc2ce219"/>
        <path d="M -106.385 -68.063 Q -105.53 -69.772 -104.676 -68.063 L -102.112 -62.936 Q -101.258 -61.227 -102.967 -61.227 L -108.094 -61.227 Q -109.803 -61.227 -108.948 -62.936 Z" style="stroke: rgb(0, 0, 0); fill: rgb(58, 184, 157);" transform="matrix(0, 1, 1, 0, 207.321473, 259.570527)" bx:shape="triangle -109.803 -69.772 8.545 8.545 0.5 0.2 1@968aa5aa"/>
      </g>
      <text style="fill: rgb(51, 51, 51); font-family: &quot;Roboto Condensed&quot;; font-size: 30px; font-weight: 700; white-space: pre; text-decoration: underline solid rgba(0, 0, 0, 0.85);" x="104.122" y="155.382">SQL</text>
    </symbol>
    <symbol id="triangle" viewBox="0 0 220 220">
      <title>Triangle</title>
      <polygon points="40 40 180 110 40 190" style="fill-rule: nonzero; stroke: rgb(51, 51, 51); stroke-miterlimit: 20; stroke-dashoffset: -3px; paint-order: stroke; stroke-width: 50px; stroke-linejoin: round; stroke-linecap: round; fill: rgb(58, 184, 157);"/>
    </symbol>
    <symbol id="copy" viewBox="0 0 85.119 92.9" bx:pinned="true">
      <title>Copy</title>
      <g transform="matrix(1, 0, 0, 1, -13.9725, -7.250724)">
        <rect x="24.115" y="13.163" width="38.675" height="45.896" style="fill: rgb(216, 216, 216); stroke: rgb(0, 0, 0); stroke-width: 6px; stroke-linecap: round; stroke-linejoin: round;"/>
        <rect x="42.974" y="24.294" width="40.052" height="45.935" style="fill: rgb(216, 216, 216); stroke: rgb(0, 0, 0); stroke-linejoin: round; stroke-linecap: round; stroke-width: 6px;"/>
        <path d="M -92.575 -53.621 H -89.698 L -92.575 -63.98 L -62.65 -48.73 L -92.575 -33.48 L -89.698 -43.838 H -92.575 V -53.621 Z" style="stroke: rgb(0, 0, 0); fill: rgb(58, 184, 157); stroke-width: 4px; stroke-linecap: square; stroke-linejoin: bevel;" transform="matrix(-1, 0, 0, -1, 0, 0)" bx:shape="arrow -92.575 -63.98 29.925 30.5 9.783 29.925 2.877 1@c865c550"/>
        <text style="fill: rgb(51, 51, 51); font-family: &quot;Roboto Condensed&quot;; font-size: 18px; font-weight: 700; white-space: pre; text-decoration: underline solid rgba(0, 0, 0, 0.85);" x="20.489" y="89.794">Copy Sql</text>
      </g>
    </symbol>
    <symbol id="logo" viewBox="0 0 32 50">
      <title>Logo</title>
      <g transform="matrix(1, 0, 0, 1, -1.772368, -0.239217)">
        <g style="" transform="matrix(0.24134, 0, 0, 0.350729, 14.036423, 10.076302)">
          <title>Database</title>
          <ellipse style="fill: rgb(236, 236, 236); stroke-width: 13.5119px; stroke: rgb(51, 51, 51);" cx="15.005" cy="83.365" rx="50" ry="20">
            <title>bottom</title>
          </ellipse>
          <ellipse style="fill: rgb(236, 236, 236); stroke-width: 13.5119px; stroke: rgb(51, 51, 51);" cx="15.005" cy="57.365" rx="50" ry="20">
            <title>middle-bottom</title>
          </ellipse>
          <ellipse style="fill: rgb(236, 236, 236); stroke-width: 13.5119px; stroke: rgb(51, 51, 51);" cx="15.005" cy="33.365" rx="50" ry="20">
            <title>middle-tup</title>
          </ellipse>
          <path style="fill: rgb(236, 236, 236); stroke-width: 13.5119px; stroke: rgb(51, 51, 51);" d="M 65.424 7.365 L 65.005 85.598"/>
          <path style="fill: rgb(236, 236, 236); stroke-width: 13.5119px; stroke: rgb(51, 51, 51);" d="M -34.576 7.365 L -34.995 85.598"/>
          <ellipse style="paint-order: fill; fill: rgb(236, 236, 236); stroke-width: 13.5119px; stroke: rgb(51, 51, 51);" cx="15.005" cy="7.365" rx="50" ry="20">
            <title>top</title>
          </ellipse>
        </g>
        <g style="" transform="matrix(0.132459, 0, 0, 0.132459, -47.525974, 0.651215)">
          <title>Relation</title>
          <g transform="matrix(1.560455, 0, 0, 1.560455, 178.17189, -112.217316)" style="">
            <title>Relation line</title>
            <line style="stroke-width: 4.05494px; fill: rgb(58, 184, 158); paint-order: stroke; stroke: rgb(58, 184, 158);" x1="201.221" y1="177.314" x2="201.221" y2="193.534"/>
            <line style="stroke-width: 4.05494px; fill: rgb(58, 184, 158); paint-order: stroke; stroke: rgb(58, 184, 158);" x1="219.114" y1="191.84" x2="219.114" y2="211.014" transform="matrix(0, -1, 1, 0, 17.686996, 420.541)"/>
            <line style="stroke-width: 4.05494px; fill: rgb(58, 184, 158); paint-order: stroke; stroke: rgb(58, 184, 158);" x1="183.625" y1="191.84" x2="183.625" y2="211.014" transform="matrix(0, -1, 1, 0, -17.802002, 385.052002)"/>
            <line style="stroke-width: 4.05494px; fill: rgb(58, 184, 158); paint-order: stroke; stroke: rgb(58, 184, 158);" x1="236.603" y1="208.121" x2="236.603" y2="224.341"/>
            <line style="stroke-width: 4.05494px; fill: rgb(58, 184, 158); paint-order: stroke; stroke: rgb(58, 184, 158);" x1="165.111" y1="208.121" x2="165.111" y2="224.341"/>
            <ellipse style="fill: rgb(216, 216, 216); stroke-linejoin: round; stroke: rgb(58, 184, 157); paint-order: stroke; stroke-width: 12.1648px;" cx="166.481" cy="201.381" rx="2.685" ry="2.685"/>
            <ellipse style="fill: rgb(216, 216, 216); stroke-linejoin: round; stroke: rgb(58, 184, 157); paint-order: stroke; stroke-width: 12.1648px;" cx="236.471" cy="201.381" rx="2.685" ry="2.685"/>
            <ellipse style="fill: rgb(216, 216, 216); stroke-linejoin: round; stroke: rgb(58, 184, 157); paint-order: stroke; stroke-width: 12.1648px;" cx="201.355" cy="201.381" rx="2.685" ry="2.685"/>
          </g>
          <g transform="matrix(0.499693, 0, 0, 0.499693, 408.701843, 199.424301)" style="">
            <title>Entity Parent</title>
            <rect x="230" y="75" width="100" height="69.919" style="stroke-linejoin: round; fill: rgb(255, 255, 255); paint-order: fill; fill-rule: nonzero; stroke: rgb(58, 184, 157); stroke-width: 17.9814px;"/>
            <path style="stroke-linejoin: round; fill: rgb(255, 255, 255); paint-order: fill; fill-rule: nonzero; stroke: rgb(58, 184, 157); stroke-width: 5.99379px;" d="M 230 104.699 L 330 104.408"/>
          </g>
          <g transform="matrix(1.113404, 0, 0, 1.17075, 180.136734, -10.4697)" style="">
            <title>Entity Parent</title>
            <rect x="230" y="75" width="100" height="69.919" style="stroke-linejoin: round; fill: rgb(255, 255, 255); paint-order: fill; fill-rule: nonzero; stroke: rgb(58, 184, 157); stroke-width: 17.9814px;"/>
            <path style="stroke-linejoin: round; fill: rgb(255, 255, 255); paint-order: fill; fill-rule: nonzero; stroke: rgb(58, 184, 157); stroke-width: 5.99379px;" d="M 230 104.699 L 330 104.408"/>
          </g>
          <g transform="matrix(0.499693, 0, 0, 0.499693, 299.85614, 199.424164)" style="">
            <title>Entity Parent</title>
            <rect x="230" y="75" width="100" height="69.919" style="stroke-linejoin: round; fill: rgb(255, 255, 255); paint-order: fill; fill-rule: nonzero; stroke: rgb(58, 184, 157); stroke-width: 17.9814px;"/>
            <path style="stroke-linejoin: round; fill: rgb(255, 255, 255); paint-order: fill; fill-rule: nonzero; stroke: rgb(58, 184, 157); stroke-width: 5.99379px;" d="M 230 104.699 L 330 104.408"/>
          </g>
        </g>
        <g style="" transform="matrix(0.208277, 0, 0, 0.208526, -9.577927, 8.398914)">
          <title>Magnifying glass</title>
          <ellipse style="stroke: rgb(0, 0, 0); stroke-linejoin: round; stroke-linecap: square; fill: rgb(58, 184, 157); stroke-width: 3.16004px;" cx="133.707" cy="122.941" rx="24.368" ry="24.368"/>
          <ellipse style="stroke: rgb(0, 0, 0); stroke-linejoin: round; stroke-linecap: square; fill: rgb(255, 255, 255); stroke-width: 3.16004px;" cx="133.837" cy="122.649" rx="17.899" ry="17.899"/>
          <g style="" transform="matrix(0.658456, 0, 0, 1.172879, 46.702843, -25.645754)">
            <title>Graph</title>
            <rect x="137.82" y="127.903" width="8.622" height="9.681" style="fill: rgb(216, 216, 216); stroke: rgb(0, 0, 0); stroke-width: 3.4505px;"/>
            <rect x="129.198" y="123.063" width="8.622" height="14.521" style="fill: rgb(216, 216, 216); stroke: rgb(0, 0, 0); stroke-width: 3.4505px;"/>
            <rect x="120.576" y="113.382" width="8.622" height="24.202" style="fill: rgb(216, 216, 216); stroke: rgb(0, 0, 0); stroke-width: 3.4505px;"/>
          </g>
          <rect x="127.857" y="108.138" width="48.944" height="10.804" style="stroke: rgb(0, 0, 0); stroke-linejoin: round; stroke-linecap: square; fill: rgb(58, 184, 157); stroke-width: 3.16004px;" rx="3.658" ry="3.658" transform="matrix(-0.681998, -0.731354, 0.731354, -0.681998, 189.106796, 349.15683)"/>
        </g>
      </g>
    </symbol>
    <symbol id="referrer" viewBox="0 0 100 100" bx:pinned="true">
      <title>Referrer</title>
      <g transform="matrix(1, 0, 0, 1, -0.302373, 9.743923)">
        <rect x="7.442" y="14.503" width="38" height="51.554" style="stroke-linejoin: round; stroke-width: 6px; fill: rgb(58, 184, 157); stroke: rgb(51, 51, 51);"/>
        <rect x="40.044" y="3.634" width="38" height="48.366" style="fill: rgb(216, 216, 216); stroke: rgb(0, 0, 0); stroke-linejoin: round; stroke-width: 6px;"/>
        <path style="stroke: rgb(51, 51, 51); fill: rgb(58, 184, 157);" d="M 43.709 54.735 C 43.709 54.735 42.611 54.748 51.611 54.748 C 56.611 54.748 59.579 49.748 59.579 49.748 C 59.686 49.588 58.579 48.748 52.571 46.748 C 56.563 44.748 63.334 41.206 70.534 36.748 C 71.563 43.748 73.604 55.748 73.604 55.748 C 73.609 56.748 69.596 53.748 66.592 52.748 C 65.592 52.748 62.628 59.529 55.639 62.529 C 55.639 62.529 53.644 63.529 43.644 63.529 C 43.644 63.529 43.639 62.529 43.611 55.748 L 43.709 54.735 Z" transform="matrix(1, -0.000641, 0.000641, 1, -0.032127, 0.037578)"/>
      </g>
      <defs>
        <bx:grid x="0.743" y="0.369" width="97.985" height="88.898"/>
      </defs>
      <text style="fill: rgb(51, 51, 51); font-family: &quot;Roboto Condensed&quot;; font-size: 18px; font-weight: 700; white-space: pre;" x="20.114" y="5.373"><tspan x="23.369" y="95.556" style="text-decoration: underline solid rgba(0, 0, 0, 0.85); font-size: 18px; word-spacing: 0px;">Referer</tspan></text>
    </symbol>
    <symbol id="url" viewBox="0 0 100 100" bx:pinned="true">
      <title>Url</title>
      <g transform="matrix(1, 0, 0, 1, 3.549847, -10.927372)">
        <line style="fill: rgb(216, 216, 216); stroke-width: 9px; stroke-linejoin: round; stroke-linecap: round; stroke: rgb(58, 184, 157);" x1="27.2" y1="45" x2="65.7" y2="45"/>
        <path style="fill: none; stroke-width: 13px; stroke-linecap: round; stroke: rgb(51, 51, 51);" d="M 65.7 63.98 C 80.793 63.98 90.226 47.641 82.679 34.571 C 79.267 28.66 73.027 24.949 66.204 24.774"/>
        <path style="fill: none; stroke-width: 13px; stroke-linecap: round; stroke: rgb(51, 51, 51);" d="M 7.565 24.774 C 22.658 24.774 32.091 41.113 24.544 54.183 C 21.132 60.094 14.892 63.805 8.069 63.98" transform="matrix(-1, 0, 0, -1, 34.765306, 88.754002)"/>
      </g>
      <text style="fill: rgb(51, 51, 51); font-family: &quot;Roboto Condensed&quot;; font-size: 37px; font-weight: 700; white-space: pre; text-decoration: underline solid rgba(0, 0, 0, 0.85);" x="20.335" y="88.733">URL</text>
    </symbol>
    <symbol id="src" viewBox="0 0 100 100" bx:pinned="true">
      <title>File Source</title>
      <g transform="matrix(1, 0, 0, 1, 13.408999, 2.918516)">
        <path d="M 39.313 3.858 L 11.869 3.858 L 11.869 69.279 L 61.313 69.222 L 61.313 25.858" style="stroke: rgb(0, 0, 0); fill: none; stroke-width: 4px;"/>
        <path d="M 41.418 6.503 L 51.075 16.015 L 58.644 23.729 L 41.418 23.729 L 41.418 6.503 Z" style="stroke: rgb(0, 0, 0); opacity: 0.8; fill: none; stroke-width: 4px; stroke-linecap: round;"/>
        <text style="fill: rgb(58, 184, 157); font-family: &quot;Roboto Condensed&quot;; font-size: 35px; font-weight: 700; white-space: pre;" x="20.828" y="57.52">&lt;&gt;</text>
        <text style="fill: rgb(51, 51, 51); font-family: &quot;Roboto Condensed&quot;; font-size: 18px; font-weight: 700; white-space: pre; text-decoration: underline solid rgba(0, 0, 0, 0.85);" x="22.405" y="85.946">SRC</text>
      </g>
    </symbol>
    <symbol id="exec" viewBox="0 0 100 100" bx:pinned="true">
      <title>Function call</title>
      <text style="fill: rgb(58, 184, 157); font-family: &quot;Roboto Condensed&quot;; font-size: 33px; font-weight: 700; white-space: pre;" x="26" y="49">{...}</text>
      <rect x="17" y="5" width="66" height="66" style="stroke: rgb(0, 0, 0); fill: none; stroke-width: 6px;"/>
      <text style="fill: rgb(51, 51, 51); font-family: &quot;Roboto Condensed&quot;; font-size: 21px; font-weight: 700; white-space: pre;" x="6" y="-4"><tspan x="27.83" y="92.696" style="text-decoration: underline solid rgba(0, 0, 0, 0.85); font-size: 21px; word-spacing: 0px;">EXEC</tspan></text>
    </symbol>
    <style bx:fonts="Roboto Condensed">@import url(https://fonts.googleapis.com/css2?family=Roboto+Condensed%3Aital%2Cwght%400%2C300%3B0%2C400%3B0%2C700%3B1%2C300%3B1%2C400%3B1%2C700&amp;display=swap);</style>
  </defs>
  <use width="439.91900634765625" height="429.364990234375" transform="matrix(0.013455, 0, 0, 0.013455, 18.708401, 1.111447)" style="" xlink:href="#sql-time"/>
  <use width="85" height="88" transform="matrix(0.067713, 0, 0, 0.067713, 12.952796, 1.020628)" style="" xlink:href="#query"/>
  <use width="86.39700317382812" height="77.93800354003906" transform="matrix(0.075843, 0, 0, 0.075843, 24.62751, 1.111494)" style="" xlink:href="#explain"/>
  <use width="101.4729995727539" height="72.38600158691406" transform="matrix(0.073882, 0, 0, 0.073882, 31.27672, 1.631349)" style="" xlink:href="#execute"/>
  <use width="226" height="226" transform="matrix(0.025562, 0, 0, 0.025562, 7.175784, 1.111494)" style="" xlink:href="#triangle"/>
  <use width="85.11900329589844" height="92.9000015258789" transform="matrix(0.062185, 0, 0, 0.064141, 38.77375, 1.384862)" style="" xlink:href="#copy"/>
  <use width="66" height="48.10599899291992" transform="matrix(0.108724, 0, 0, 0.108724, 0, 1.384862)" style="" xlink:href="#logo"/>
  <use width="100" height="100" transform="matrix(0.049751, 0, 0, 0.055231, 44.066879, 1.365406)" style="" xlink:href="#referrer"/>
  <use width="100" height="100" transform="matrix(0.057771, 0, 0, 0.057771, 49.041981, 1.202272)" style="" xlink:href="#url"/>
  <use width="100" height="100" transform="matrix(0.051809, 0, 0, 0.051809, 54.81908, 1.631349)" style="" xlink:href="#src"/>
  <use width="100" height="100" transform="matrix(0.049796, 0, 0, 0.049796, 59.590214, 1.631349)" style="" xlink:href="#exec"/>
</svg>
